<svg id="图层_1" data-name="图层 1" xmlns="http://www.w3.org/2000/svg" viewBox="0 0 182.53 36.09"><defs><style>.cls-1{fill:#fff;}.cls-2{fill:#9396f7;}</style></defs><title>DICECHO文字白</title><path class="cls-1" d="M610.16,274.44H593.72v-1q3.81-.21,4-3.81V242.76c.13-2.41-1.2-3.55-4-3.41v-1h16.44q16.44,1.22,17.25,18Q626.81,273.64,610.16,274.44Zm0-34.69H605a2.86,2.86,0,0,0-3.21,3v26.87a3,3,0,0,0,3.41,3.2h5q12-.79,12.43-16.44Q622,241,610.16,239.75Z" transform="translate(-593.72 -238.34)"/><path class="cls-1" d="M640.63,274H630.44v-.77q3.55-.17,3.4-2.32V249.4c0-1.65-1.13-2.47-3.4-2.47v-.77h10.19v.77q-3.71-.15-3.55,2.47v21.46c0,1.44,1.19,2.21,3.55,2.32Z" transform="translate(-593.72 -238.34)"/><path class="cls-1" d="M664.52,245.82l.92,7.1-.77.31q-3.09-6.79-8.8-6.48-8.19.92-8.8,13.12.46,12,9.73,12.66,5.7,0,9.72-6.33l.77.62q-3.85,7.73-11.27,7.56-12-.61-12.35-14.35,1.08-13.44,12.2-14.36a17,17,0,0,1,6.18,1.08Z" transform="translate(-593.72 -238.34)"/><path class="cls-2" d="M692.87,267.88l-.92,6H670.33v-.77c2.26,0,3.4-.88,3.4-2.63V249.35c0-1.65-1.14-2.47-3.4-2.47v-.77H691l.77,6-.77.46q-2.16-6-5.25-5.4h-6.33c-1.75-.1-2.62.61-2.62,2.16v9.26h6c2.06.1,3.29-1.23,3.7-4h.78v9.72h-.78c-.51-3.08-1.75-4.57-3.7-4.47h-6V270.5c-.11,1.54.77,2.27,2.62,2.16H687c2,.41,3.65-1.23,5.09-4.94Z" transform="translate(-593.72 -238.34)"/><path class="cls-1" d="M716.76,245.77l.92,7.1-.77.31q-3.09-6.8-8.8-6.48-8.19.92-8.8,13.12.47,12,9.73,12.66,5.7,0,9.72-6.33l.77.62q-3.85,7.73-11.27,7.56-12-.61-12.35-14.36,1.08-13.43,12.2-14.35a17,17,0,0,1,6.18,1.08Z" transform="translate(-593.72 -238.34)"/><path class="cls-1" d="M731.53,273.07v.78h-9v-.78q3.24,0,2.94-2.47V249c.1-1.55-.88-2.26-2.94-2.16v-.77h9v.77c-2.06-.1-3,.61-2.94,2.16v9.73h13.59V249c.1-1.55-.87-2.26-2.93-2.16v-.77h9v.77c-2.16-.1-3.19.61-3.09,2.16V270.6c0,1.55,1,2.37,3.09,2.47v.78h-9v-.78c2,0,2.93-.82,2.93-2.47V260H728.59V270.6C728.49,272.15,729.47,273,731.53,273.07Z" transform="translate(-593.72 -238.34)"/><path class="cls-1" d="M776.25,260.08q-.62,13.74-12.66,14.36-11.9-.46-12.35-14.36.93-13.44,12.35-14.51Q775.48,246.49,776.25,260.08Zm-3.24.15q-.46-12.81-9.42-13.43-8.64.78-9.11,13.43.46,12.51,9.11,13.28Q772.54,272.75,773,260.23Z" transform="translate(-593.72 -238.34)"/></svg>