<?xml version="1.0" encoding="iso-8859-1"?>
<!-- Generator: Adobe Illustrator 25.2.1, SVG Export Plug-In . SVG Version: 6.00 Build 0)  -->
<svg version="1.1" xmlns="http://www.w3.org/2000/svg" xmlns:xlink="http://www.w3.org/1999/xlink" x="0px" y="0px"
	 viewBox="0 0 1125 741" style="enable-background:new 0 0 1125 741;" xml:space="preserve">
<g id="&#x30EC;&#x30A4;&#x30E4;&#x30FC;_16">
	<path style="fill:#3B4756;" d="M534.113,190.351c-74.575-3.204-154.608,21.983-223.478,50.769
		c-81.741,34.166-167.921,90.045-168.648,95.178c-1.205,8.512-73.309,24.141-42.436,133.138s121.816,189.947,169.651,201.581
		s357.311,47.908,470.379,34.89c108.842-12.531,234.781-75.596,259.7-111.865c37.43-54.477,28.698-196.763-9.282-241.042
		c-40.289-46.97-252.732-114.81-291.48-124.921C667.002,219.855,588.829,192.702,534.113,190.351z"/>
</g>
<g id="&#x30EC;&#x30A4;&#x30E4;&#x30FC;_6">
	<g>
		<g>
			<path style="fill:#212121;" d="M941.469,610c21.101,0,42.202,0,63.303,0c21.173,0,42.346,0,63.518,0c11.903,0,23.806,0,35.709,0
				c3.861,0,3.867-6,0-6c-21.213,0-42.426,0-63.638,0c-21.142,0-42.283,0-63.425,0c-11.823,0-23.646,0-35.468,0
				C937.608,604,937.602,610,941.469,610L941.469,610z"/>
		</g>
	</g>
	<g>
		<g>
			<path style="fill:#212121;" d="M929.147,610c3.02,0,6.04,0,9.06,0c1.569,0,3.073-1.38,3-3c-0.073-1.625-1.318-3-3-3
				c-3.02,0-6.04,0-9.06,0c-1.569,0-3.073,1.38-3,3C926.22,608.625,927.465,610,929.147,610L929.147,610z"/>
		</g>
	</g>
	<g>
		<g>
			<path style="fill:#212121;" d="M167.157,610c96.29,0,192.58,0,288.87,0c96.283,0,192.566,0,288.849,0
				c54.127,0,108.253,0,162.38,0c3.861,0,3.867-6,0-6c-96.388,0-192.777,0-289.166,0c-96.255,0-192.511,0-288.766,0
				c-54.056,0-108.112,0-162.168,0C163.297,604,163.29,610,167.157,610L167.157,610z"/>
		</g>
	</g>
	<g>
		<g>
			<path style="fill:#212121;" d="M130.143,610c3.026,0,6.052,0,9.079,0c1.569,0,3.073-1.38,3-3c-0.073-1.625-1.318-3-3-3
				c-3.026,0-6.052,0-9.079,0c-1.569,0-3.073,1.38-3,3C127.216,608.625,128.462,610,130.143,610L130.143,610z"/>
		</g>
	</g>
	<g>
		<g>
			<path style="fill:#212121;" d="M36,610c17.879,0,35.758,0,53.637,0c5.132,0,10.264,0,15.396,0c3.861,0,3.867-6,0-6
				c-17.879,0-35.758,0-53.637,0c-5.132,0-10.264,0-15.396,0C32.139,604,32.133,610,36,610L36,610z"/>
		</g>
	</g>
</g>
<g id="&#x30EC;&#x30A4;&#x30E4;&#x30FC;_4">
	<g>
		<g>
			<path style="fill:#212121;" d="M503.557,26.666c0,31.621,0,63.241,0,94.862c0,4.509,0,9.017,0,13.526
				c0,7.239,11.25,7.251,11.25,0c0-31.621,0-63.241,0-94.862c0-4.509,0-9.017,0-13.526
				C514.807,19.427,503.557,19.415,503.557,26.666L503.557,26.666z"/>
		</g>
	</g>
	<g>
		<line style="fill:#9292A9;" x1="509.182" y1="159.053" x2="509.5" y2="191"/>
		<g>
			<path style="fill:#212121;" d="M503.557,159.053c0.106,10.649,0.212,21.298,0.318,31.947c0.072,7.235,11.322,7.253,11.25,0
				c-0.106-10.649-0.212-21.298-0.318-31.947C514.735,151.818,503.485,151.8,503.557,159.053L503.557,159.053z"/>
		</g>
	</g>
	<g>
		<g>
			<g>
				<path style="fill:#212121;" d="M472.02,112.71c0,31.621,0,63.241,0,94.862c0,4.509,0,9.017,0,13.526
					c0,7.239,11.25,7.251,11.25,0c0-31.62,0-63.241,0-94.862c0-4.509,0-9.017,0-13.526C483.27,105.471,472.02,105.459,472.02,112.71
					L472.02,112.71z"/>
			</g>
		</g>
		<g>
			<line style="fill:#9292A9;" x1="477.645" y1="245.097" x2="477.645" y2="293.871"/>
			<g>
				<path style="fill:#212121;" d="M472.02,245.097c0,16.258,0,32.516,0,48.774c0,7.239,11.25,7.251,11.25,0
					c0-16.258,0-32.516,0-48.774C483.27,237.858,472.02,237.846,472.02,245.097L472.02,245.097z"/>
			</g>
		</g>
	</g>
	<g>
		<g>
			<path style="fill:#212121;" d="M424.057,279.405c-9.384-14.542-21.763-27.853-35.139-38.748
				c-24.519-19.97-55.046-30.239-86.758-26.245c-8.343,1.051-16.782,2.786-24.499,6.231c-6.599,2.945-0.883,12.642,5.678,9.714
				c0.23-0.103-1.553,0.556,0.066-0.008c1.245-0.434,2.474-0.899,3.732-1.298c4.064-1.29,8.23-2.258,12.431-2.975
				c14.149-2.415,28.916-1.493,42.75,2.217c25.039,6.715,45.476,23.892,61.893,43.395c3.597,4.273,7.1,8.696,10.132,13.396
				C418.256,291.146,427.998,285.512,424.057,279.405L424.057,279.405z"/>
		</g>
	</g>
	<g>
		<g>
			<path style="fill:#212121;" d="M245.339,250.357c3.5-2.167,7-4.333,10.5-6.5c2.581-1.598,3.579-5.027,2.018-7.696
				c-1.507-2.577-5.103-3.623-7.696-2.018c-3.5,2.167-7,4.333-10.5,6.5c-2.581,1.598-3.579,5.027-2.018,7.696
				C239.15,250.916,242.746,251.962,245.339,250.357L245.339,250.357z"/>
		</g>
	</g>
	<g>
		<g>
			<path style="fill:#808080;" d="M216.125,268.603c-8.412-5.095-21.543-8.923-27.405,1.935c-4.021,7.448-1.624,17.509,2.722,24.273
				c5.363,8.348,15.336,13.115,24.667,7.924c5.948-3.309,10.358-8.795,10.385-15.767c0.024-6.215-3.048-12.1-7.885-15.896
				c-4.816-3.78-11.815-5.647-17.371-2.237c-7.209,4.425-6.604,13.634-4.13,20.596c1.073,3.02,3.795,5.661,7.232,5.506
				c12.909-0.582,13.567-14.939,7.742-23.633c-1.856-2.77-5.133-4.385-8.47-3.447c-11.298,3.178-13.364,22.419-3.014,27.975
				c6.002,3.222,12.879,0.268,15.742-5.531c2.411-4.884,2.328-11.533,0.678-16.634c-1.788-5.527-8.253-7.149-12.535-3.309
				c-4.952,4.44-5.314,12.364-2.333,17.966c2.62,4.922,10.31,4.839,12.952,0c3.712-6.799,4.021-15.076-3.183-19.701
				c-5.178-3.324-11.929-3.671-17.911-3.496c1.768,4.268,3.536,8.536,5.303,12.803c1.275-1.169-0.603,0.113,0.358-0.345
				c0.568-0.27,1.089-0.723,1.639-1.044c1.151-0.67,2.038-1.097,2.899-1.436c2.659-1.044,4.72-1.507,7.117-1.599
				c1.232-0.047,1.045,0.626,2.288,0.278c-0.744,0.209,0.468,0.162-0.257-0.212c-0.697-0.359,0.163-0.566,0.116,0.158
				c0.041-0.632,0.016,0.928-0.004,1.444c-0.069,1.787-0.327,3.112,0.378,4.883c0.317,0.796,1.009,1.522,1.275,2.307
				c1.46,4.326-3.621,8.485-7.778,8.115c-0.905-0.081-2.021-1.101-1.333-0.173c-1.197-1.613-1.355-5.153-1.608-7.134
				c-0.669-5.248-0.85-10.518-1.902-15.719c-0.961-4.754-7.095-6.851-11.017-4.482c-9.379,5.664-9.742,20.93-7.662,30.496
				c1.358,6.246,6.137,9.743,12.351,10.369c4.551,0.458,10.289-1.405,14.177-0.628c9.427,1.885,13.461-12.57,3.988-14.464
				c-3.754-0.75-7.225-0.487-10.992-0.115c-1.516,0.15-3.711-0.152-5.119,0.343c-2.842,0.997,1.431-0.333,0.203,1.293
				c0.488-0.646-0.425-6.705-0.341-8.317c0.085-1.616,0.252-3.186,0.707-4.746c0.253-0.866,1.219-1.859,0.257-1.279
				c-3.673-1.494-7.345-2.988-11.017-4.482c1.698,8.397,1.001,17.122,4.434,25.149c3.171,7.412,11.955,9.853,19.384,8.436
				c14.398-2.746,23.502-18.639,15.322-31.643c0.252,1.926,0.504,3.853,0.756,5.779c1.475-10.929-3.553-20.05-15.368-20.635
				c-8.367-0.414-17.711,3.161-23.858,8.795c-4.765,4.367-1.077,12.99,5.303,12.803c2.702-0.079,5.549-0.169,8.125,0.512
				c1.079,0.285,1.588,0.543,1.59,0.506c0.01-0.268-0.643-1.531-0.815-1.834c-0.043-0.075-0.638,1.225-0.757,1.443
				c4.317,0,8.635,0,12.952,0c-0.289-0.543,1.364-1.023-0.013,0.212c-4.178-1.103-8.357-2.206-12.535-3.31
				c0.514,1.59,0.645,2.37,0.583,4.036c-0.089,2.393-0.771,1.757,2.396,1.343c-1.065,0.139,5.036-0.765,3.554,1.069
				c-0.219,0.272-0.093-1.867-0.113-1.636c0.227-2.626,1.202-0.871-1.374-0.146c-2.823-1.149-5.647-2.298-8.47-3.447
				c0.706,1.054,1.065,1.85,1.386,2.852c0.006,0.018,0.469,1.171,0.268,0.801c-0.009,0.952,0.007,1.187,0.049,0.705
				c0.129-1.632,1.298-2.73,3.507-3.296c2.411,1.835,4.821,3.671,7.232,5.506c-0.516-1.451-1.007-2.908-1.278-4.429
				c0.083,0.427,0.086,0.202,0.008-0.673c0.048-0.979,0.044-1.025-0.012-0.138c-0.431,0.815-0.451,0.872-0.061,0.169
				c-0.285,0.537-0.688,0.962-1.21,1.277c-1.037,0.378-1.158,0.454-0.363,0.226c-1.119,0.126-1.244,0.181-0.377,0.165
				c-2.373-1.373,1.689,1.194-0.287-0.049c0.235,0.148,2.42,1.59,1.309,0.726c1.143,0.888,1.71,1.849,2.016,2.969
				c-0.014-0.052,0.579,2.025,0.152,2.157c0.765-0.236,2.273-2.594,0.035-0.498c-1.846,1.729-1.409,1.202-3.512,2.712
				c2.066-1.483-2.089,1.015,0.594-0.116c-0.211,0.089-3.147,0.251-0.523,0.148c-0.602,0.023-2.436-1.025-0.563-0.049
				c-0.611-0.319-1.186-0.668-1.747-1.068c1.671,1.189-0.167-0.238-0.471-0.605c-1.333-1.61,0.149,0.418-0.571-0.655
				c-0.498-0.742-2.27-4.297-1.67-2.783c-0.565-1.425-0.935-2.877-1.268-4.369c-0.286-1.279-0.054,1.448-0.043-0.684
				c0.003-0.68-0.003-1.348,0.042-2.028c-0.156,2.352-0.143,0.17,0.173-0.311c0.688-1.047-1.186,1.274,0.145-0.161
				c-2.183,2.356,0.947-1.593-0.961,0.958c0.16-0.213-1.214-0.223,0.225-0.057c-2.546-0.294,0.252,0.055,0.578,0.139
				c-2.031-0.523,0.823,0.287,1.163,0.391c1.736,0.531,3.379,1.487,5.459,2.747C216.832,286.569,224.38,273.603,216.125,268.603
				L216.125,268.603z"/>
		</g>
	</g>
	<path style="fill:#666666;" d="M184,296.326c12.751,6.443,24.85-15.25,22.892-23.236c-0.222-1.692,14.486-8.489,16.778-6.052
		c1.473,3.995,13.685,22.016,4.773,27.894c-10.991,11.212-26.537,14.806-38.683,8.143"/>
</g>
<g id="&#x30EC;&#x30A4;&#x30E4;&#x30FC;_7">
	<path style="fill:#8E8E8E;" d="M614.303,419.528c-2.674,1.306-5.227,3.216-8.049,3.783c-4.687,0.941-7.915-1.471-9.456-6.034
		c-1.654-4.897,0.445-8.218,4.763-10.06c3-1.28,6.333-1.779,9.285-2.566c0.811-3.304-1.839-4.415-2.769-6.364
		c-2.52-5.284-3.333-10.64,2.214-14.091c5.106-3.177,10.165-0.499,12.618,4.056c3.311,6.148,6.039,5.858,10.863,1.797
		c3.524-2.967,8.361-4.596,12.505-0.996c4.066,3.532,2.201,7.615-0.536,11.105c-6.006,7.659,7.883,8.476,5.047,14.974
		c-0.75,1.696-1.568,4.625-2.961,4.414c-7.563-1.147-9.169,5.721-13.27,9.176c-4.187,1.438-8.318,2.633-11.008-2.506
		C619.955,424.695,620.011,418.128,614.303,419.528z"/>
	<path style="fill:#454545;" d="M346.838,396.621c8.547,10.796,12.885,23.77,18.753,35.965c1.329,2.763,1.686,4.599,1.275,5.809
		c1.809-0.275,3.626-0.595,5.436-0.803c-2.022-2.421-0.786-7.887-2.805-10.31c-0.698-7.352-3.911-13.542-8.763-18.976
		c-3.782-5.434-7.128-11.072-8.795-17.565c6.053-2.52,12.493,1.296,17.797-2.694c-7.818-1.653-17.889,3.871-22.776-7.141
		c-2.951,2.643-7.242,3.551-9.386,7.241C340.438,391.215,348.562,388.538,346.838,396.621z"/>
	<path style="fill:#606060;" d="M630.583,345.719c-0.457,8.549-10.584,21.138-19.016,23.513c-2.531,0.713-5.339,1.452-7.421-0.759
		c-2.096-2.225-1.361-5.027-0.132-7.367c4.716-8.976,12.344-15.023,20.965-19.874C630.039,338.383,630.671,341.778,630.583,345.719z
		"/>
	<path style="fill:#414141;" d="M615.439,431.464c0.537,0.688,0.979,1.333,1.354,1.974c1.044-2.517,1.662-4.816-2.585-4.605
		c-0.166,0.5-0.347,0.974-0.529,1.443C614.366,430.508,614.987,430.886,615.439,431.464z"/>
	<path style="fill:#414141;" d="M537.68,438.679c-0.605-0.999-0.835-2.387-0.657-4.248c1.425-4.955,5.773-8.509,6.558-13.766
		c2.082-9.563,8.848-17.383,10.099-27.241c-2.022-4.991-3.554-11.375-10.007-3.417c4.522,0.637,2.348,3.106,1.797,5.646
		c-2.815,12.969-9.133,37.423-12.47,33.346c-4.784,4.766,1,4,1,4c-0.399,0.595-2.629,6.249-2.339,6.903
		c1.545,1.012,3.154,1.728,4.835,2.209C536.473,440.908,536.933,439.685,537.68,438.679z"/>
	<path style="fill:#646464;" d="M353.81,438.023c-11.772-1.142-20.421-8.381-27.641-17.313c-3.199-3.957,0.634-5.286,3.899-4.768
		c11.136,1.767,20.727,6.711,28.475,15.003c1.297,1.388,2.496,3.018,1.63,5.035C358.997,438.717,356.396,437.754,353.81,438.023z"/>
	<path style="fill:#515151;" d="M658.14,417.773c1.287,0.081,2.574,0.162,3.86,0.244c-2.254,10.187-12.78,17.553-21.898,15.311
		c-2.367-0.582-2.356-2.513-2.412-4.387C640.912,418.638,650.411,419.826,658.14,417.773z"/>
	<path style="fill:#606060;" d="M614.302,419.528c3.532,3.138-8.842,21.364-8.302,24.472c1.879,0.879,4.731-1.708,5,0
		c0.083,0.134,5.771-10.598,5.847-10.465c2.597-2.105,1.397-7.703,6.702-7.318C623.181,420.239,622.031,415.338,614.302,419.528z"/>
	<path style="fill:#383838;" d="M494.257,439.302c-1.514-1.639-1.286-4.996-0.794-11.502c1.585-20.928,6.73-41.087,14.249-60.586
		c1.945-5.044,2.427-11.349,8.226-14.348c3.043-4.122,1.496-6.969-2.541-9.12c-5.41,1.019-6.646,5.869-8.656,9.782
		c-7.176,13.967-11.25,29.014-14.867,44.188c-1.975,14.042-8.199,27.909-1.768,42.311c2.192,0.637,4.383,1.185,6.575,1.658
		C494.374,440.948,494.222,440.11,494.257,439.302z"/>
	<path style="fill:#494949;" d="M383.212,439.513c0.211-0.281,0.422-0.562,0.632-0.843c0.511-0.681,1.109-1.178,1.751-1.522
		c-0.239-1.281-0.083-2.81,0.257-4.448c2.15-10.359,4.587-20.658,6.907-30.981c3.573-3.062,4.299-7.119,4.028-11.524
		c0.294-6.988,6.764-11.529,7.301-18.421c-0.845-1.053-1.107-2.645-2.746-2.962c-10.271,20.639-19.197,41.735-22.041,64.896
		C380.36,436.276,381.688,438.149,383.212,439.513z"/>
	<path style="fill:#2E2E2E;" d="M464.687,392.778c-6.626-0.504-7.964,2.584-5.592,8.201c4.088,12.788,1.137,25.911,1.849,38.86
		c0.108,0.103,0.212,0.214,0.318,0.323c1.334,0.101,2.667,0.201,4.001,0.302c0.228-3.724,0.456-7.448,0.683-11.172
		c2.232-1.969,2.698-4.647,2.942-7.408C467.926,412.11,471.79,401.656,464.687,392.778z"/>
	<path style="fill:#8E8E8E;" d="M463.272,392.324c-2.583,2.313-3.934,5.221-4.179,8.658c-3.373,3.508-6.399,8.534-12.135,6.742
		c-6.439-2.012-7.602-9.011-3.889-12.427c1.804-1.66,8.151-7.192,7.931-8.296c-1-5-13.748-0.722-15-1c-9-2-4.124-16.054,4-16
		c1.492,0.01,10.019,1.283,11.512,0.896c-2.245-4.991-4.806-9.611-6.389-14.544c-1.285-4.005-1.597-8.994,3.152-10.965
		c5.41-2.245,8.15,2.218,10.66,6.129c2.283,3.558,2.513,7.677,2.601,13.343c4.468-5.111,7.884-9.02,11.3-12.929
		c4.692-5.747,10.126-6.742,15.505-1.412c5.105,5.058,2.199,10.879-9.896,20.73c0.18,3.904,4.211,4.864,6.085,7.497
		c2.309,3.245,4.118,6.416,2.328,10.462c-1.972,4.46-5.765,5.604-10.239,5.649C471.985,394.903,467.846,392.499,463.272,392.324z"/>
	<path style="fill:#8D8D8D;" d="M552.24,395.124c-1.952-3.222-1.338-10.744-8.57-5.116c-1.692,0.818-3.316,2.1-5.094,2.372
		c-7.215,1.104-14.959,0.851-15.699-8.247c-0.721-8.857,7.06-8.06,13.14-8.146c1.887-0.026,3.775-0.004,5.654-0.004
		c1.174-3.76-2.133-5.519-3.153-8.181c-1.698-4.433-3.453-9.17,2.002-11.866c4.828-2.387,9.711-0.064,11.493,4.395
		c3.362,8.417,7.43,9.426,14.804,4.478c4.035-2.707,9.501-3.664,13.973-0.232c5.303,4.07,0.487,6.75-1.543,10.212
		c-1.81,3.086,2.086,3.078,3.807,3.92c4.794,2.346,8.71,5.3,6.718,11.367c-2.066,6.293-7.25,5.356-12.32,4.898
		c-2.243-0.203-5.83-4.61-6.792,1.491c-2.445,5.255-6.202,8.534-12.325,7.177C554.014,402.684,550.534,400.628,552.24,395.124z"/>
	<path style="fill:#929292;" d="M513.327,340.453c-2.022,0.981-4.08,1.894-6.059,2.955c-10.997,5.893-16.486,2.419-16.572-10.523
		c4.981-3.674,10.888-4.57,17.103-5.338c-3.195-6.866-13.406-13.637-4.027-20.596c9.694-7.193,13.138,6.515,20.391,9.47
		c4.162-4.341,7.247-11.379,15.316-8.063c4.998,2.053,6.407,5.841,3.942,10.826c-2.568,0.349-4.009-3.121-6.854-2.138
		c0.766,2.509,3.397,2.826,4.762,4.507c0.144,1.411,0.287,2.821,0.431,4.232c-1.791,3.808-4.42,6.358-8.987,6.003
		c-3.555-1.035-6.315-5.632-11.074-2.92c1.231,4.661,6.032,3.275,8.119,5.865C526.95,344.197,520.951,344.666,513.327,340.453z"/>
	<path style="fill:#606060;" d="M481.609,341.85c-2.234,0.836-4.469,1.672-6.703,2.508c-15.313-13.419-17.971-31.364-17.919-50.251
		c0.006-2.301,0.42-5.079,2.605-5.924c3.033-1.173,4.466,1.864,6.296,3.68c8.917,8.853,13.859,19.649,15.814,31.936
		C484.699,329.831,486.005,335.855,481.609,341.85z"/>
	<path style="fill:#5E5E5E;" d="M537.023,434.431c-0.168-5.633,2.361-10.471,4.544-15.411c8.298-7.977,16.559-16.028,29.413-15.182
		c2.827,0.574,6.688-1.479,8.337,1.722c1.78,3.453-0.955,6.507-3.006,9.188C566.426,427.667,553.687,434.992,537.023,434.431z"/>
	<path style="fill:#3F3F3F;" d="M593.209,314.418c-5.23,16.69-16.541,28.064-31.556,36.383
		c-3.776-16.128,11.393-39.532,26.672-41.84c5.025-0.759,4.605,2.4,4.826,5.427C593.149,314.387,593.209,314.418,593.209,314.418z"
		/>
	<path style="fill:#434343;" d="M404.088,371.775c-0.915-0.987-1.829-1.974-2.745-2.961c-7.741-12.78-9.157-26.217-3.941-40.225
		c0.97-2.604,0.816-6.95,4.843-6.606c3.056,0.261,1.844,4.616,3.693,6.513c4.093,6.141-2.091,15.463,6.286,20.276
		c0.979,1.462,1.888,2.942,1.07,4.804C410.225,359.642,407.156,365.708,404.088,371.775z"/>
	<path style="fill:#8E8E8E;" d="M513.327,340.453c6.007-0.191,12.18,0.094,16.234-5.678c-0.441-2.238,0.581-3.519,2.678-4.1
		c3.173-1.63,6.347-3.26,9.521-4.891c7.204,0.409,7.021,5.529,6.439,10.534c-0.563,4.844-4.203,6.204-8.241,5.146
		c-4.675-1.224-4.989,1.166-6.474,4.688c-3.261,7.737-8.694,12.356-17.544,6.715c0.292-3.239-0.747-6.078-2.601-8.669
		C513.335,342.952,513.331,341.703,513.327,340.453z"/>
	<path style="fill:#5E5E5E;" d="M413.294,353.575c-0.837-0.826-1.674-1.653-2.51-2.479c-0.699-3.384,0.696-6.233,2.306-9.028
		c4.035-9.612,9.376-18.263,18.086-24.406c1.797-1.267,3.553-3.55,5.973-2.131c2.304,1.35,1.625,4.043,1.338,6.22
		c-1.437,10.898-7.336,19.072-16.339,24.885C418.933,348.711,415.841,350.74,413.294,353.575z"/>
	<path style="fill:#666666;" d="M392.759,401.72c0.605-4.101-0.273-1.289,2.241-4.72c6-10,11.269-17.712,21-20
		c3.392-0.798,8.165-4.996,11-1c2.523,3.556,0.334,9.227-2,12C415.628,399.131,406.928,401.034,392.759,401.72z"/>
	<path style="fill:#626262;" d="M361.794,306.183c8.277,12.249,16.193,21.763,19.144,34.093c0.722,3.015,2.307,7.452-1.476,9.246
		c-3.329,1.579-5.113-2.397-6.988-4.574C363.524,334.559,358.695,322.928,361.794,306.183z"/>
	<path style="fill:#666666;" d="M535,427c-2,2-6,0-9.479-2.261c-8.94-5.81-11.421-15.233-12.149-25.281
		c-0.095-1.313,0.405-3.313,1.333-3.921c1.875-1.229,3.485,0.397,4.852,1.686c5.583,5.262,9.905,11.343,12.23,18.749
		C532.507,418.266,530.876,427.538,535,427z"/>
	<path style="fill:#606060;" d="M412.619,415.372c0.323-2.798-1.115-6.837,1.917-8.129c4.342-1.85,5.258,3.055,7.153,5.463
		c4.461,5.671,7.145,12.303,9.237,19.138c0.629,2.055,1.164,4.872-1.38,5.906c-1.383,0.562-3.698-0.138-5.169-0.994
		C416.259,432.028,411.694,425.193,412.619,415.372z"/>
	<path style="fill:#606060;" d="M367.133,408.353c2.406-3.812,4.715-7.691,7.26-11.408c1.202-1.755,2.553-4.37,5.219-3.031
		c2.345,1.178,1.515,3.957,1.582,6.114c0.233,7.506-5.653,11.896-9.051,17.555C363.253,418.425,365.811,413.054,367.133,408.353z"/>
	<path style="fill:#737373;" d="M588.551,417.478c6.12,3.181,10.993,7.614,11.892,15.103c0.313,2.604-1.244,4.792-3.993,4.022
		c-7.361-2.062-10.93-7.687-12.141-14.844C583.887,419.265,585.32,417.479,588.551,417.478z"/>
	<path style="fill:#888888;" d="M575.839,355.072c-2.784-0.615-5.879-1.51-4.372-4.146c3.417-5.976,9.592-7.844,16.111-8.276
		c1.9-0.126,4.433,1.233,3.434,3.214C587.857,352.114,581.5,353.534,575.839,355.072z"/>
	<path style="fill:#7D7D7D;" d="M344.688,335.837c7.533-0.423,13.068,1.867,17.638,6.762c1.308,1.401,2.682,3.149,1.506,4.944
		c-1.129,1.724-3.365,1.541-5.178,0.9C352.608,346.303,347.058,343.541,344.688,335.837z"/>
	<path style="fill:#6B6B6B;" d="M493.416,293.749c0.556,1.864,1.282,2.956,1.075,3.824c-1.288,5.397-1.952,11.244-7.508,14.337
		c-1.547,0.861-3.087-0.152-3.187-1.876C483.371,302.713,486.303,297.368,493.416,293.749z"/>
	<path style="fill:#8F8F8F;" d="M541.33,321.552c-2.585,1.153-4.892,1.483-6.978-1.183c-2.025-2.588-3.584-5.801-1.4-8.156
		c3.144-3.39,5.022,0.912,7.041,2.568c1.403,1.15,2.304,2.913,3.429,4.402C542.725,319.972,542.028,320.762,541.33,321.552z"/>
	<path style="fill:#C7C7C7;" d="M634.575,406.834c-0.077,3.748-2.298,5.584-5.608,6.001c-3.201,0.403-6.508-0.323-6.935-4.072
		c-0.455-3.997,2.369-6.28,6.071-6.832C631.664,401.4,633.649,403.612,634.575,406.834z"/>
	<path style="fill:#515151;" d="M465.958,421.547c3.797-8.442,9.439-15.546,15.96-22.013c3.126-0.655,6.036-1.175,6.462,3.477
		c0.607,6.614-10.91,25.729-17.301,27.771c-1.409,0.45-3.407-0.947-5.134-1.492C465.951,426.709,465.954,424.128,465.958,421.547z"
		/>
	<path style="fill:#CECECE;" d="M463.607,375.695c-0.169,2.253-0.557,4.624-3.393,4.791c-2.766,0.163-3.838-1.77-3.7-4.283
		c0.136-2.47,1.381-4.248,4.053-4.207C462.775,372.029,463.755,373.484,463.607,375.695z"/>
	<path style="fill:#CBCBCB;" d="M559.928,383.353c-3.394-0.267-5.203-1.361-4.98-4.218c0.181-2.318,1.996-3.002,3.987-3.085
		c2.447-0.102,4.748,0.564,4.795,3.447C563.777,382.309,561.478,383.012,559.928,383.353z"/>
	<path style="fill:#C7C7C7;" d="M532.239,330.675c-0.892,1.368-1.784,2.737-2.677,4.102c-4.722,0.73-9.649,2.344-12.301-3.835
		c-1.465-3.413,0.666-4.925,3.079-5.95C526.301,322.461,530.284,324.568,532.239,330.675z"/>
	<path style="fill:#8D8D8D;" d="M326.446,355.902c11.315-0.498,12.033,9.735,17.121,17.058c4.714-6.117,9.128-12.595,16.591-15.406
		c8.09-3.047,12.561,0.345,11.028,8.845C370.68,369.201,355,377,364,375c11.022-2.449,17.081,11.268,6,17
		c-7.966,0.079-12.887,2.966-20-4c2.797,2.763-1.777-0.094-4,1c-1.725,0.849,1.067,0.983,2,2
		c0.955,3.813-5.377,24.548-14.127,18.323c-6.114-4.35-4.56-8.153-3.442-14.203c-5.221,1.393-9.758,3.003-14.434,3.738
		c-4.571,0.718-9.713,0.714-11.253-5.008c-1.406-5.224,2.752-7.583,6.73-9.043c5.653-2.075,11.523-3.555,18.115-5.533
		C325.403,372.184,324.604,364.178,326.446,355.902z"/>
	<path style="fill:#CBCBCB;" d="M351.96,383.905c-0.024,6.435-4.665,6.887-9.385,7.239c-2.397-2.431-3.4-5.479-0.866-7.941
		C344.997,380.009,348.655,381.771,351.96,383.905z"/>
</g>
<g id="&#x30EC;&#x30A4;&#x30E4;&#x30FC;_18">
	<g>
		<path style="fill:#76767B;" d="M892.825,601.427l25.263-131.126l11.468,0.23l24.249,128.494L892.825,601.427z"/>
		<path style="fill:#565656;" d="M926.56,471.667c0.512,4.282,9.298,126.652,9.298,126.652h19.312l-25.614-127.787l-2.947,0.952
			C926.537,471.516,926.551,471.589,926.56,471.667z"/>
		<g>
			<path style="fill:#333333;" d="M876.454,607.732c0-4.389-0.058-8.503,0.082-12.61c0.015-0.455,1.146-1.228,1.778-1.248
				c3.822-0.119,7.651-0.148,11.473-0.027c1.818,0.057,2.729-0.658,2.752-2.373c0.065-4.723,2.662-7.06,6.835-9.013
				c15.812-7.402,31.432-15.213,47.129-22.862c0.384-0.187,0.819-0.269,1.541-0.498c0.786,3.627,1.554,7.11,2.294,10.6
				c0.528,2.491,0.96,5.003,1.543,7.481c0.359,1.525-0.168,2.299-1.56,2.954c-8.88,4.184-17.723,8.447-26.574,12.692
				c-0.107,0.052-0.163,0.212-0.392,0.528c4.096,0,8.037-0.036,11.978,0.007c11.088,0.121,22.175,0.306,33.263,0.382
				c1.655,0.011,2.235,0.474,2.185,2.175c-0.112,3.879-0.035,7.764-0.035,11.814C939.266,607.732,908.034,607.732,876.454,607.732z"
				/>
			<path style="fill:#333333;" d="M939.979,519.561c0.68,3.238,1.314,6.222,1.933,9.21c0.593,2.862,1.086,5.747,1.785,8.583
				c0.441,1.789-0.092,2.722-1.757,3.492c-8.358,3.867-16.676,7.823-24.992,11.78c-5.137,2.444-10.245,4.95-15.374,7.413
				c-0.724,0.348-1.489,0.612-2.498,1.022c0.056-0.771,0.039-1.261,0.134-1.729c1.387-6.898,2.75-13.802,4.239-20.678
				c0.176-0.811,0.901-1.784,1.636-2.152c10.983-5.492,22.01-10.898,33.032-16.311C938.574,519.965,939.089,519.857,939.979,519.561
				z"/>
			<path style="fill:#333333;" d="M908.75,512.748c0.473-2.313,0.933-4.55,1.387-6.789c1.041-5.134,2.05-10.275,3.151-15.397
				c0.155-0.721,0.592-1.666,1.177-1.966c5.457-2.804,10.973-5.492,16.479-8.2c0.178-0.088,0.427-0.03,0.951-0.055
				c0.436,2.083,0.876,4.179,1.313,6.275c0.809,3.882,1.6,7.769,2.435,11.646c0.267,1.239,0.107,2.119-1.199,2.733
				c-8.264,3.886-16.501,7.831-24.752,11.743C909.516,512.821,909.266,512.748,908.75,512.748z"/>
		</g>
		<path style="fill:#282828;" d="M965.645,610.242h-84.048c-2.957,0-5.355-2.397-5.355-5.355v-6.234
			c0-2.957,2.397-5.355,5.355-5.355h84.048c2.957,0,5.355,2.397,5.355,5.355v6.234C971,607.844,968.603,610.242,965.645,610.242z"/>
	</g>
</g>
<g id="&#x30EC;&#x30A4;&#x30E4;&#x30FC;_9">
	<path style="fill:#515161;" d="M412.412,399.022c-10.655-0.072-25.846,1.862-39.12,11.773
		c-8.576,6.404-19.898,18.786-16.605,24.661c2.996,5.347,16.796,2.984,20.994,2.168c-1.008,1.656-2.016,3.311-3.024,4.967
		c-0.854,2.158-0.574,3.287-0.158,3.918c1.867,2.833,10.317,1.467,16.092-2.35c2.137-1.412,3.638-2.982,4.61-4.158
		C400.939,426.34,406.675,412.681,412.412,399.022z"/>
	<path style="fill:#626678;" d="M562.429,510.403H424.122c-15.591,0-28.346-12.756-28.346-28.346V343.75
		c0-15.591,12.756-28.346,28.346-28.346h138.307c15.591,0,28.346,12.756,28.346,28.346v138.307
		C590.775,497.647,578.019,510.403,562.429,510.403z"/>
	<path style="fill:#A0A0BB;" d="M629.489,370.017"/>
	<path style="fill:#A0A0BB;" d="M372.056,369.193"/>
	<path style="fill:#515161;" d="M572.621,399.022c10.655-0.072,25.846,1.862,39.12,11.773c8.576,6.404,19.898,18.786,16.605,24.661
		c-2.996,5.347-16.796,2.984-20.994,2.168c1.008,1.656,2.016,3.311,3.024,4.967c0.854,2.158,0.574,3.287,0.158,3.918
		c-1.867,2.833-10.317,1.467-16.092-2.35c-2.137-1.412-3.638-2.982-4.61-4.158C584.094,426.34,578.357,412.681,572.621,399.022z"/>
</g>
<g id="&#x30EC;&#x30A4;&#x30E4;&#x30FC;_15">
	<g>
		<line style="fill:#B8B7B7;" x1="426.292" y1="363.776" x2="426.682" y2="423.073"/>
		<g>
			<path style="fill:#B8B7B7;" d="M418.792,363.776c0.13,19.766,0.26,39.532,0.39,59.298c0.063,9.649,15.064,9.67,15,0
				c-0.13-19.766-0.26-39.532-0.39-59.298C433.728,354.127,418.728,354.106,418.792,363.776L418.792,363.776z"/>
		</g>
	</g>
	<g>
		<line style="fill:#B8B7B7;" x1="522.274" y1="363.991" x2="522.664" y2="423.289"/>
		<g>
			<path style="fill:#B8B7B7;" d="M514.774,363.991c0.13,19.766,0.26,39.532,0.39,59.298c0.063,9.649,15.064,9.67,15,0
				c-0.13-19.766-0.26-39.532-0.39-59.298C529.711,354.342,514.711,354.321,514.774,363.991L514.774,363.991z"/>
		</g>
	</g>
	<g>
		<polygon style="fill:#B8B7B7;" points="469.382,421.086 486.477,433.295 452.286,433.295 		"/>
		<g>
			<path style="fill:#B8B7B7;" d="M468.12,423.244c5.698,4.07,11.397,8.14,17.095,12.209c0.421-1.553,0.841-3.106,1.262-4.659
				c-10.003,0-20.006,0-30.009,0c-1.394,0-2.788,0-4.182,0c0.421,1.553,0.841,3.106,1.262,4.659
				c5.698-4.07,11.397-8.14,17.095-12.209c1.097-0.784,1.623-2.18,0.897-3.42c-0.634-1.084-2.316-1.686-3.421-0.897
				c-5.698,4.07-11.397,8.14-17.095,12.209c-1.925,1.375-1.382,4.659,1.262,4.659c10.003,0,20.006,0,30.008,0
				c1.394,0,2.788,0,4.182,0c2.64,0,3.189-3.283,1.262-4.659c-5.698-4.07-11.397-8.14-17.095-12.209
				c-1.099-0.785-2.783-0.193-3.42,0.897C466.488,421.08,467.018,422.457,468.12,423.244z"/>
		</g>
	</g>
</g>
<g id="&#x30EC;&#x30A4;&#x30E4;&#x30FC;_17" style="display:none;">
	<g style="display:inline;">
		<line style="fill:#B8B7B7;" x1="521.292" y1="343.776" x2="521.682" y2="403.073"/>
		<g>
			<path style="fill:#B8B7B7;" d="M513.792,343.776c0.13,19.766,0.26,39.532,0.39,59.298c0.063,9.649,15.064,9.67,15,0
				c-0.13-19.766-0.26-39.532-0.39-59.298C528.728,334.127,513.728,334.106,513.792,343.776L513.792,343.776z"/>
		</g>
	</g>
	<g style="display:inline;">
		<line style="fill:#B8B7B7;" x1="617.5" y1="352" x2="617.664" y2="403.289"/>
		<g>
			<path style="fill:#B8B7B7;" d="M610,352c0.055,17.096,0.11,34.193,0.164,51.289c0.031,9.65,15.031,9.669,15,0
				c-0.055-17.096-0.11-34.193-0.164-51.289C624.969,342.35,609.969,342.331,610,352L610,352z"/>
		</g>
	</g>
	<g style="display:inline;">
		<polygon style="fill:#B8B7B7;" points="564.382,401.086 581.477,413.295 547.286,413.295 		"/>
		<g>
			<path style="fill:#B8B7B7;" d="M563.12,403.244c5.698,4.07,11.397,8.14,17.095,12.209c0.421-1.553,0.841-3.106,1.262-4.659
				c-10.003,0-20.006,0-30.009,0c-1.394,0-2.788,0-4.182,0c0.421,1.553,0.841,3.106,1.262,4.659
				c5.698-4.07,11.397-8.14,17.095-12.209c1.097-0.784,1.623-2.18,0.897-3.42c-0.634-1.084-2.316-1.686-3.42-0.897
				c-5.698,4.07-11.397,8.14-17.095,12.209c-1.925,1.375-1.382,4.659,1.262,4.659c10.003,0,20.006,0,30.009,0
				c1.394,0,2.788,0,4.182,0c2.64,0,3.189-3.283,1.262-4.659c-5.698-4.07-11.397-8.14-17.095-12.209
				c-1.099-0.785-2.783-0.193-3.42,0.897C561.488,401.08,562.018,402.457,563.12,403.244z"/>
		</g>
	</g>
	<g style="display:inline;">
		<g>
			<path style="fill:#B8B7B7;" d="M597.523,337.477c7.256,7.256,13.078,15.059,21.849,20.725c5.804,3.75,12.278,6.073,18.633,8.721
				c6.675,2.781,9.587-8.099,2.991-10.848c-5.538-2.308-10.943-4.354-15.946-7.587c-7.889-5.098-13.041-12.435-19.572-18.966
				C600.352,324.397,592.394,332.349,597.523,337.477L597.523,337.477z"/>
		</g>
	</g>
</g>
<g id="&#x30EC;&#x30A4;&#x30E4;&#x30FC;_14" style="display:none;">
	<g style="display:inline;">
		<polygon style="fill:#BCBABA;" points="564.649,394.291 581.745,406.5 547.554,406.5 		"/>
		<g>
			<path style="fill:#BCBABA;" d="M563.388,396.449c5.698,4.07,11.397,8.14,17.095,12.209c0.421-1.553,0.841-3.106,1.262-4.659
				c-10.003,0-20.006,0-30.008,0c-1.394,0-2.788,0-4.182,0c0.421,1.553,0.841,3.106,1.262,4.659
				c5.698-4.07,11.397-8.14,17.095-12.209c1.097-0.784,1.623-2.18,0.897-3.42c-0.634-1.084-2.316-1.686-3.42-0.897
				c-5.698,4.07-11.397,8.14-17.095,12.209c-1.925,1.375-1.382,4.659,1.262,4.659c10.003,0,20.006,0,30.008,0
				c1.394,0,2.788,0,4.182,0c2.64,0,3.189-3.283,1.262-4.659c-5.698-4.07-11.397-8.14-17.095-12.209
				c-1.099-0.785-2.783-0.193-3.42,0.897C561.756,394.285,562.286,395.662,563.388,396.449z"/>
		</g>
	</g>
	<g style="display:inline;">
		<g>
			<line style="fill:#BCBABA;" x1="507.076" y1="335" x2="548.278" y2="372.998"/>
			<g>
				<path style="fill:#BCBABA;" d="M503.098,338.977c13.734,12.666,27.468,25.332,41.202,37.998
					c5.315,4.902,13.291-3.034,7.955-7.955c-13.734-12.666-27.468-25.332-41.202-37.998
					C505.738,326.12,497.762,334.056,503.098,338.977L503.098,338.977z"/>
			</g>
		</g>
		<g>
			<line style="fill:#BCBABA;" x1="503" y1="384.703" x2="548.278" y2="372.998"/>
			<g>
				<path style="fill:#BCBABA;" d="M504.495,390.127c15.093-3.901,30.185-7.803,45.278-11.704
					c7.004-1.811,4.035-12.664-2.991-10.848c-15.093,3.901-30.185,7.803-45.278,11.704
					C494.5,381.089,497.47,391.943,504.495,390.127L504.495,390.127z"/>
			</g>
		</g>
	</g>
	<g style="display:inline;">
		<g>
			<line style="fill:#BCBABA;" x1="634.225" y1="335.406" x2="593.023" y2="373.404"/>
			<g>
				<path style="fill:#BCBABA;" d="M630.248,331.428c-13.734,12.666-27.468,25.332-41.202,37.998
					c-5.334,4.919,2.637,12.859,7.955,7.955c13.734-12.666,27.468-25.332,41.202-37.998
					C643.537,334.464,635.566,326.524,630.248,331.428L630.248,331.428z"/>
			</g>
		</g>
		<g>
			<line style="fill:#BCBABA;" x1="638.301" y1="385.108" x2="593.023" y2="373.404"/>
			<g>
				<path style="fill:#BCBABA;" d="M639.797,379.684c-15.093-3.901-30.185-7.803-45.278-11.704
					c-7.014-1.813-10.006,9.035-2.991,10.848c15.093,3.902,30.186,7.803,45.278,11.704
					C643.82,392.345,646.812,381.498,639.797,379.684L639.797,379.684z"/>
			</g>
		</g>
	</g>
</g>
<g id="&#x30EC;&#x30A4;&#x30E4;&#x30FC;_8">
	<path style="fill:#2D2D2D;" d="M535.952,580.787c-2.872-3.076-6.648-2.024-10.09-2.036c-25.26-0.092-50.521-0.07-75.781-0.083
		c-2.263-0.899-4.098-2.204-4.587-4.8c3.929-16.354-2.968-27.395-19.804-35.969c-12.405-6.317-34.926,1.655-40.106,10.91
		c-1.364,2.438-1.059,6.883-5.79,6.491c-0.169-12.508-5.725-23.677-9.01-35.385c-5.821-20.75-12.313-41.312-18.525-61.953
		c-2.49-6.902-0.038-9.37,7.189-9.073c10.388,0.427,20.808,0.058,31.213,0.13c5.329,0.037,34.676-1.711,43.834-1.774
		c13.243-0.092,26.488,0.303,39.724-0.239c1.023-0.298,2.067-0.502,3.121-0.654c1.575-0.183,3.144-0.1,4.704,0.149
		c6.579,1.655,13.15,0.29,19.732-0.114c11.814,1.479,23.634,1.255,35.473,0.244c1.156-0.167,2.3-0.155,3.453-0.009
		c18.402,1.342,36.82,0.231,55.222,0.609c4.185,0.086,8.409-0.415,12.537,0.719c8.19,2.827,16.916-0.773,25.099,2.097
		c-3.372,18.873-10.525,36.676-15.654,55.054c-4,14.334-8.801,28.443-13.247,42.652c-0.756,0.578-1.613,0.891-2.556,0.983
		c-6.061-1.631-10.058-6.688-15.516-9.357c-3.194-1.562-6.318-3.124-9.996-2.944c-1.42,0.028-2.835,0.048-4.254,0.045
		c-20.093-3.634-39.547,18.655-35.384,36.987C537.505,575.885,538.082,578.599,535.952,580.787z"/>
	<ellipse style="fill:#232323;" cx="413.677" cy="570.097" rx="37.5" ry="37.434"/>
	<ellipse style="fill:#232323;" cx="570.677" cy="571.097" rx="37.5" ry="37.434"/>
	<g>
		<g>
			<path style="fill:#373737;" d="M606.468,468.452c-0.044,0.808,0.072,1.648,0.33,2.416c0.527,1.571,0.982,2.341,2.106,3.57
				c0.207,0.227,0.475,0.385,0.666,0.629c-0.391-0.506-0.782-1.012-1.173-1.518c0.039,0.057,0.071,0.111,0.102,0.173
				c-0.252-0.597-0.504-1.194-0.756-1.792c0.009,0.021,0.017,0.043,0.026,0.064c0.232,0.976,0.68,1.826,1.342,2.551
				c0.529,0.816,1.23,1.46,2.104,1.932c0.861,0.548,1.79,0.845,2.789,0.89c0.997,0.223,1.994,0.179,2.991-0.134
				c0.597-0.252,1.194-0.504,1.792-0.756c1.127-0.667,2.024-1.564,2.691-2.691c0.252-0.597,0.504-1.194,0.756-1.792
				c0.357-1.329,0.357-2.658,0-3.988c-0.13-0.322-0.265-0.642-0.404-0.96c-0.116-0.328-0.252-0.647-0.408-0.956
				c-0.187-0.311-0.442-0.591-0.658-0.871c-0.243-0.315-0.497-0.716-0.812-0.999c-0.178-0.16-0.372-0.297-0.521-0.487
				c0.391,0.506,0.782,1.012,1.173,1.518c-0.037-0.054-0.067-0.105-0.096-0.164c0.252,0.597,0.504,1.194,0.756,1.792
				c-0.025-0.065-0.042-0.124-0.056-0.192c0.089,0.665,0.179,1.329,0.268,1.994c-0.009-0.079-0.01-0.15-0.006-0.229
				c0.039-1.033-0.176-1.996-0.646-2.89c-0.302-0.93-0.819-1.734-1.551-2.414c-0.679-0.731-1.484-1.248-2.414-1.551
				c-0.894-0.47-1.857-0.685-2.89-0.646c-0.665,0.089-1.329,0.179-1.994,0.268c-1.271,0.356-2.374,0.999-3.31,1.929
				c-0.391,0.506-0.782,1.012-1.173,1.518C606.813,465.836,606.472,467.098,606.468,468.452L606.468,468.452z"/>
		</g>
	</g>
	<g>
		<g>
			<path style="fill:#212121;" d="M616.62,463.044c-0.628-0.367-1.256-0.735-1.884-1.102c-1.926,4.569-3.853,9.139-5.779,13.708
				c50.071,20.02,99.903,40.63,149.827,61.011c3.778,1.542,8.207-1.676,9.226-5.238c1.225-4.281-1.505-7.701-5.238-9.226
				c-32.023-13.08-64.046-26.16-96.069-39.24c-3.777-1.543-8.207,1.676-9.226,5.238c-1.225,4.281,1.505,7.701,5.238,9.226
				c32.023,13.08,64.046,26.16,96.069,39.24c1.329-4.821,2.658-9.643,3.988-14.464c-49.924-20.382-99.756-40.991-149.827-61.011
				c-8.033-3.212-12.927,9.527-5.779,13.708c0.628,0.367,1.256,0.735,1.884,1.102C617.399,480.88,624.957,467.921,616.62,463.044
				L616.62,463.044z"/>
		</g>
	</g>
	<circle style="fill:none;stroke:#333333;stroke-width:5;stroke-miterlimit:10;" cx="414.5" cy="570.5" r="21"/>
	<circle style="fill:none;stroke:#333333;stroke-width:5;stroke-miterlimit:10;" cx="570.5" cy="571.5" r="20"/>
</g>
<g id="&#x30EC;&#x30A4;&#x30E4;&#x30FC;_10">
	<g>
		<g>
			<g>
				<g>
					<path style="fill:#282828;" d="M361.475,466.563c-0.151-0.002-0.206-0.002-0.404-0.152c-1.372-0.88-3.349-3.14-0.083-5.819
						c0.06-0.049,0.344-0.226,0.487-0.252l10.315,0.005l187.641,0.021c0,0,9.463,0.638,16.098,1.586
						c11.259,1.324,6.759,2.699-0.22,3.439c0.729,0.135-16.692,1.173-16.692,1.173H371.79H361.475z"/>
				</g>
			</g>
		</g>
		<g>
			<g>
				<g>
					<path style="fill:#282828;" d="M365.088,483.079c-0.151-0.002-0.206-0.002-0.404-0.152c-1.372-0.88-3.349-3.14-0.083-5.819
						c0.06-0.049,0.344-0.226,0.487-0.252l10.315,0.005l176.802,0.021c0,0,9.463,0.638,16.098,1.586
						c11.259,1.324,6.759,2.699-0.22,3.439c0.729,0.135-16.692,1.173-16.692,1.173H375.403H365.088z"/>
				</g>
			</g>
		</g>
		<g>
			<g>
				<g>
					<path style="fill:#282828;" d="M372.314,500.111c-0.151-0.002-0.206-0.002-0.404-0.152c-1.372-0.88-3.349-3.14-0.083-5.819
						c0.06-0.049,0.344-0.226,0.487-0.252l10.315,0.005l131.899,0.021c0,0,9.463,0.638,16.098,1.586
						c11.259,1.324,6.759,2.699-0.22,3.439c0.729,0.135-16.692,1.173-16.692,1.173H382.629H372.314z"/>
				</g>
			</g>
		</g>
		<g>
			<g>
				<g>
					<path style="fill:#282828;" d="M379.54,518.176c-0.151-0.002-0.206-0.002-0.404-0.152c-1.372-0.88-3.349-3.14-0.083-5.819
						c0.06-0.049,0.344-0.226,0.487-0.252l10.315,0.005l112.286,0.021c0,0,4.209,0.284,9.048,0.754
						c0.243,0.025,0.489,0.05,0.743,0.076c2.1,0.219,4.329,0.474,6.306,0.756c11.259,1.324,6.759,2.699-0.22,3.439
						c0.307,0.057-2.609,0.274-6.086,0.507c-0.245,0.016-0.493,0.033-0.743,0.049c-4.616,0.289-9.863,0.617-9.863,0.617H389.855
						H379.54z"/>
				</g>
			</g>
		</g>
	</g>
</g>
<g id="&#x30EC;&#x30A4;&#x30E4;&#x30FC;_5">
	<g>
		<path style="fill:#76767B;" d="M212.425,590.953L252.683,382l18.274,0.367l38.641,204.759L212.425,590.953z"/>
		<path style="fill:#565656;" d="M266.184,384.176C267,391,281,586,281,586h30.774l-40.817-203.633l-4.695,1.518
			C266.147,383.935,266.169,384.052,266.184,384.176z"/>
		<g>
			<path style="fill:#333333;" d="M186.338,601c0-6.994-0.092-13.549,0.13-20.095c0.025-0.725,1.826-1.957,2.834-1.988
				c6.09-0.19,12.193-0.236,18.282-0.043c2.897,0.092,4.349-1.049,4.386-3.781c0.103-7.526,4.242-11.25,10.892-14.363
				c25.197-11.795,50.088-24.243,75.101-36.432c0.611-0.298,1.304-0.428,2.456-0.794c1.253,5.78,2.477,11.331,3.655,16.891
				c0.841,3.969,1.53,7.973,2.459,11.921c0.572,2.43-0.268,3.663-2.485,4.708c-14.15,6.667-28.242,13.461-42.346,20.225
				c-0.171,0.082-0.259,0.338-0.624,0.841c6.527,0,12.808-0.058,19.088,0.011c17.669,0.193,35.336,0.487,53.006,0.608
				c2.638,0.018,3.561,0.756,3.483,3.466c-0.179,6.182-0.056,12.372-0.056,18.826C286.431,601,236.661,601,186.338,601z"/>
			<path style="fill:#333333;" d="M287.566,460.497c1.084,5.16,2.095,9.915,3.081,14.676c0.945,4.56,1.73,9.159,2.844,13.677
				c0.702,2.85-0.147,4.337-2.8,5.564c-13.319,6.162-26.573,12.467-39.826,18.772c-8.187,3.895-16.326,7.888-24.498,11.814
				c-1.154,0.554-2.372,0.975-3.981,1.629c0.089-1.228,0.063-2.01,0.213-2.756c2.211-10.992,4.383-21.993,6.755-32.951
				c0.28-1.293,1.435-2.843,2.607-3.429c17.502-8.752,35.073-17.365,52.638-25.993C285.329,461.141,286.149,460.969,287.566,460.497
				z"/>
			<path style="fill:#333333;" d="M237.803,449.64c0.754-3.686,1.487-7.251,2.211-10.818c1.659-8.182,3.266-16.374,5.022-24.535
				c0.247-1.149,0.944-2.655,1.876-3.134c8.695-4.468,17.486-8.751,26.259-13.067c0.284-0.139,0.681-0.048,1.515-0.088
				c0.695,3.32,1.396,6.659,2.093,9.999c1.29,6.187,2.55,12.38,3.88,18.558c0.425,1.974,0.171,3.376-1.911,4.355
				c-13.169,6.192-26.294,12.478-39.444,18.713C239.024,449.756,238.625,449.64,237.803,449.64z"/>
		</g>
		<path style="fill:#282828;" d="M331.645,605h-140.29c-2.957,0-5.355-2.397-5.355-5.355v-16.29c0-2.957,2.397-5.355,5.355-5.355
			h140.29c2.957,0,5.355,2.397,5.355,5.355v16.29C337,602.603,334.603,605,331.645,605z"/>
	</g>
</g>
<g id="&#x30EC;&#x30A4;&#x30E4;&#x30FC;_1">
	<path style="fill:#515161;" d="M676.086,490.588c-10.655-0.072-25.846,1.862-39.12,11.773
		c-8.576,6.404-19.898,18.786-16.605,24.661c2.996,5.347,16.796,2.984,20.994,2.168c-1.008,1.656-2.016,3.311-3.024,4.967
		c-0.854,2.158-0.574,3.287-0.158,3.918c1.867,2.833,10.317,1.467,16.092-2.35c2.137-1.412,3.638-2.982,4.61-4.158
		C664.613,517.907,670.35,504.247,676.086,490.588z"/>
	<path style="fill:#626678;" d="M824.654,604H686.346C670.756,604,658,591.244,658,575.654V437.346
		C658,421.756,670.756,409,686.346,409h138.307C840.244,409,853,421.756,853,437.346v138.307C853,591.244,840.244,604,824.654,604z"
		/>
	<g>
		<line style="fill:#B8B7B7;" x1="689.966" y1="455.342" x2="690.356" y2="514.64"/>
		<g>
			<path style="fill:#B8B7B7;" d="M682.466,455.342c0.13,19.766,0.26,39.532,0.39,59.298c0.063,9.649,15.064,9.67,15,0
				c-0.13-19.766-0.26-39.532-0.39-59.298C697.403,445.694,682.403,445.672,682.466,455.342L682.466,455.342z"/>
		</g>
	</g>
	<g>
		<line style="fill:#B8B7B7;" x1="785.949" y1="455.558" x2="786.339" y2="514.855"/>
		<g>
			<path style="fill:#B8B7B7;" d="M778.449,455.558c0.13,19.766,0.26,39.532,0.39,59.298c0.063,9.649,15.064,9.67,15,0
				c-0.13-19.766-0.26-39.532-0.39-59.298C793.385,445.909,778.385,445.887,778.449,455.558L778.449,455.558z"/>
		</g>
	</g>
	<g>
		<polygon style="fill:#B8B7B7;" points="733.056,512.652 750.151,524.862 715.961,524.862 		"/>
		<g>
			<path style="fill:#B8B7B7;" d="M731.794,514.811c5.698,4.07,11.397,8.14,17.095,12.209c0.421-1.553,0.841-3.106,1.262-4.659
				c-10.003,0-20.006,0-30.008,0c-1.394,0-2.788,0-4.182,0c0.421,1.553,0.841,3.106,1.262,4.659
				c5.698-4.07,11.397-8.14,17.095-12.209c1.097-0.784,1.623-2.18,0.897-3.42c-0.634-1.084-2.316-1.686-3.42-0.897
				c-5.698,4.07-11.397,8.14-17.095,12.209c-1.925,1.375-1.382,4.659,1.262,4.659c10.003,0,20.006,0,30.008,0
				c1.394,0,2.788,0,4.182,0c2.64,0,3.189-3.283,1.262-4.659c-5.698-4.07-11.397-8.14-17.095-12.209
				c-1.099-0.785-2.783-0.193-3.42,0.897C730.163,512.647,730.692,514.024,731.794,514.811z"/>
		</g>
	</g>
	<path style="fill:#A2A2BB;" d="M893.163,461.583"/>
	<path style="fill:#A2A2BB;" d="M635.731,460.76"/>
	<path style="fill:#515161;" d="M836.295,490.588c10.655-0.072,25.846,1.862,39.12,11.773c8.576,6.404,19.898,18.786,16.605,24.661
		c-2.996,5.347-16.796,2.984-20.994,2.168c1.008,1.656,2.016,3.311,3.024,4.967c0.854,2.158,0.574,3.287,0.158,3.918
		c-1.867,2.833-10.317,1.467-16.092-2.35c-2.137-1.412-3.638-2.982-4.61-4.158C847.768,517.907,842.032,504.247,836.295,490.588z"/>
	<g>
		<g>
			<line style="fill:#BCBABA;" x1="647.459" y1="609.533" x2="700.615" y2="588.184"/>
			<g>
				<path style="fill:#808080;" d="M649.055,615.318c17.719-7.116,35.437-14.233,53.156-21.349
					c7.077-2.842,3.987-14.454-3.19-11.571c-17.719,7.116-35.437,14.233-53.156,21.349
					C638.787,606.589,641.877,618.201,649.055,615.318L649.055,615.318z"/>
			</g>
		</g>
		<g>
			<line style="fill:#BCBABA;" x1="666.377" y1="622.047" x2="672.767" y2="599.369"/>
			<g>
				<path style="fill:#808080;" d="M672.163,623.642c2.13-7.559,4.26-15.119,6.389-22.678c2.098-7.446-9.477-10.624-11.571-3.19
					c-2.13,7.559-4.26,15.119-6.389,22.678C658.494,627.897,670.069,631.075,672.163,623.642L672.163,623.642z"/>
			</g>
		</g>
		<g>
			<line style="fill:#BCBABA;" x1="652.278" y1="587.637" x2="672.767" y2="599.369"/>
			<g>
				<path style="fill:#808080;" d="M649.25,592.818c6.829,3.91,13.659,7.821,20.488,11.731c6.713,3.844,12.765-6.521,6.057-10.362
					c-6.829-3.91-13.659-7.821-20.488-11.731C648.594,578.613,642.542,588.977,649.25,592.818L649.25,592.818z"/>
			</g>
		</g>
	</g>
	<g>
		<g>
			<line style="fill:#BCBABA;" x1="723.388" y1="616.291" x2="776.278" y2="594.293"/>
			<g>
				<path style="fill:#808080;" d="M724.983,622.077c17.63-7.333,35.26-14.665,52.891-21.998c7.028-2.923,3.945-14.539-3.19-11.571
					c-17.63,7.333-35.26,14.665-52.891,21.998C714.765,613.428,717.848,625.044,724.983,622.077L724.983,622.077z"/>
			</g>
		</g>
		<g>
			<line style="fill:#BCBABA;" x1="742.457" y1="628.573" x2="748.568" y2="605.818"/>
			<g>
				<path style="fill:#808080;" d="M748.243,630.168c2.037-7.585,4.074-15.17,6.111-22.755c2.005-7.467-9.567-10.653-11.571-3.19
					c-2.037,7.585-4.074,15.17-6.111,22.755C734.666,634.445,746.239,637.63,748.243,630.168L748.243,630.168z"/>
			</g>
		</g>
		<g>
			<line style="fill:#BCBABA;" x1="727.938" y1="594.338" x2="748.568" y2="605.818"/>
			<g>
				<path style="fill:#808080;" d="M724.91,599.519c6.877,3.827,13.754,7.653,20.63,11.48c6.755,3.759,12.813-6.602,6.057-10.362
					c-6.877-3.827-13.754-7.653-20.63-11.48C724.212,585.399,718.153,595.759,724.91,599.519L724.91,599.519z"/>
			</g>
		</g>
	</g>
</g>
<g id="&#x30EC;&#x30A4;&#x30E4;&#x30FC;_3">
	<g>
		<path style="fill:#9E9E9F;" d="M687.636,407.709c-13.073,7.032,18.842,16.365,33.894,19.375
			c12.21,2.441,17.062,3.057,31.841,4.223c12.997,1.025,32.475,1.171,48.096-1.37c12.806-2.083,33.838-7.753,25.72-13.711
			c-3.505-2.573-46.903-8.445-72.395-11.396C743.768,403.301,690.738,406.04,687.636,407.709z"/>
		<path style="fill:#B4B4B5;" d="M820.056,413.864c0,0-1.68-60.809-62.388-63.792c-57.912-2.845-62.876,56.602-62.876,56.602
			c16.292,5.143,36.604,9.812,60.118,11.371C780.38,419.733,802.518,417.301,820.056,413.864z"/>
		<g>
			<g>
				<path style="fill:#C8C6CB;" d="M703.974,378.234c0.395,0.264,0.782,0.681,1.061,1.155c0.406,0.692,0.676,1.441,0.929,2.199
					c1.028,3.077,1.827,6.235,2.769,9.339c1.852,6.104,2.108,12.53,3.813,18.651c0.53,1.901,1.16,3.193,3.126,3.746
					c2.431,0.683,4.895,1.251,7.366,1.771c7.267,1.53,14.631,2.618,22.015,3.397c14.935,1.575,30.084,1.596,45.018-0.054
					c1.793-0.198,3.659-0.348,5.41-0.805c1.07-0.279,1.511-0.783,1.831-1.808c1.224-3.917,2.321-7.877,3.467-11.818
					c0.454-1.562,0.883-3.134,1.371-4.685c0.86-2.732,2.174-5.413,3.497-7.95c0.994-1.906,2.081-3.853,3.526-5.461
					c0.197-0.219,0.4-0.433,0.614-0.635c0.097-0.092,0.197-0.181,0.297-0.269c0.185-0.163,0.177-0.146,0.131-0.113
					c0.148-0.107,0.304-0.196,0.454-0.298c0.316-0.215,0.108,0.002,0.119-0.07c0.003-0.02,0.19-0.059,0.216-0.06
					c-0.404,0.009-0.715,0.194-1.255-0.575c0.918,1.307,3.086,0.059,2.159-1.262c-1.285-1.829-3.792,0.696-4.654,1.687
					c-1.513,1.741-2.702,3.756-3.765,5.794c-1.398,2.681-2.763,5.522-3.704,8.398c-1.204,3.681-2.174,7.451-3.26,11.168
					c-0.513,1.759-1.021,3.52-1.558,5.271c-0.06,0.196-0.166,0.416-0.194,0.618c-0.073,0.535,0.463-0.609,0.37-0.422
					c0.031-0.062,0.274-0.044,0.03-0.021c-0.099,0.009-0.211,0.063-0.307,0.086c-0.307,0.075-0.615,0.139-0.926,0.196
					c-5.306,0.983-10.822,1.205-16.2,1.467c-7.847,0.382-15.707,0.416-23.549-0.098c-8.247-0.54-16.47-1.514-24.608-2.955
					c-3.084-0.546-6.158-1.158-9.208-1.875c-1.14-0.268-2.277-0.551-3.407-0.858c-0.462-0.126-0.978-0.214-1.419-0.401
					c0.324,0.137,0.058-0.031-0.087-0.324c-1.056-2.136-1.264-4.86-1.653-7.178c-0.561-3.347-1.068-6.71-1.864-10.011
					c-0.827-3.43-1.94-6.811-2.937-10.196c-0.535-1.816-1.037-3.826-2.169-5.38c-0.446-0.612-0.975-1.101-1.605-1.522
					C703.895,375.178,702.642,377.343,703.974,378.234L703.974,378.234z"/>
			</g>
		</g>
	</g>
	<path style="fill:#999999;" d="M785.5,358.5L783,349l-45-5l-5,12l-2.065,43l7.065,3c8.195,1.29,13.719,1.501,22,1l12.322-2.351
		c0,0,0.565-16.5,4.872-28.325C781.5,360.5,785.5,358.5,785.5,358.5z"/>
	<path style="fill:#CCCCCC;" d="M730.871,397.785C729,386,727,375,728.99,363.355C730.807,352.726,738,344,738,344l21-4l24,9
		c0,0-7.07,13.232-10,23c-3,10-2,20-2,27l-14,3c-4.929,0.224-10.102-0.402-15-1L730.871,397.785z"/>
	<g>
		<path style="fill:#999999;" d="M760.11,343.657l-4.478,7.323c-5.216,8.53-7.751,18.43-7.277,28.417l0.446,9.394"/>
		<g>
			<path style="fill:#B3B3B3;" d="M753.634,339.872c-4.754,7.775-9.419,15.43-11.402,24.476c-1.79,8.165-1.323,16.197-0.932,24.444
				c0.456,9.61,15.458,9.666,15,0c-0.323-6.802-1.076-13.743,0.396-20.456c1.713-7.816,5.79-14.188,9.89-20.893
				C771.635,339.185,758.667,331.64,753.634,339.872L753.634,339.872z"/>
		</g>
	</g>
</g>
<g id="&#x30EC;&#x30A4;&#x30E4;&#x30FC;_12">
	<g>
		<path style="fill:#434857;" d="M741.551,419.153c12.687-0.177,25.359-0.691,37.87-2.969c16.08-2.928,28.378-4.575,42.906-12.287
			c-0.766-2.004-2.099-4.688-2.865-6.693c-10.409,5.353-32.337,11.051-51.624,13.309c-8.889,1.041-17.826,1.708-26.799,1.241
			c-5.332,0.264-10.633-0.141-15.926-0.718c-1.255,2.406-1.215,4.764,0.259,7.069C730.765,418.454,736.158,418.803,741.551,419.153z
			"/>
		<path style="fill:#434857;" d="M713.114,397.137c-0.083-0.204-0.161-0.41-0.232-0.618c-0.151-0.802-0.744-1.123-1.445-1.325
			c-5.859-4.481-12.206-6.832-19.629-4.479c0.018,1.61,1.45,1.521,2.388,1.817c3.786,1.194,6.394,3.735,8.377,7.024
			c4.634,7.686,5.944,16.012,4.306,24.742c-0.845,4.505-2.851,8.474-7.164,10.839c-0.762,0.418-2.026,0.668-1.585,2.088
			c1.945-0.166,3.889-0.332,5.834-0.498c2.063,0.506,3.739,0.054,4.79-1.938c3.66-2.156,5.736-6.212,9.666-8.045
			c1.633-6.291,3.082-12.603,1.052-19.081C718.215,403.651,717.124,399.504,713.114,397.137z"/>
		<path style="fill:#BFCBDE;" d="M698.13,437.224c6.389-2.747,9.179-8.057,10.111-14.533c1.11-7.715-0.145-15.081-3.757-22.027
			c-2.725-5.241-6.708-8.85-12.676-9.95c-4.643,0.646-8.161,2.875-10.111,7.252c-5.25,11.782-3.073,22.878,3.547,33.307
			C688.102,435.776,692.726,437.631,698.13,437.224z"/>
		<path style="fill:#2F3042;" d="M713.114,397.137c3.421,4.745,5.619,9.89,6.23,15.823c0.395,3.837-0.169,7.391-1.663,10.764
			c-0.681,1.538-0.363,2.22,0.739,3.021c3.801-1.689,5.656-4.939,6.952-8.639c0.41-2.374,0.039-4.72-0.26-7.069
			C723.795,402.236,720.31,398.199,713.114,397.137z"/>
		<path style="fill:#6F7686;" d="M700.061,401.126c-2.386-5.516-6.36-8.03-11.134-7.244c-3.529,0.581-5.53,2.928-6.593,5.931
			c-4.023,11.356-2.466,21.99,4.959,31.529c2.913,3.743,7.075,4.655,10.637,2.967c3.193-1.514,5.603-5.791,5.234-9.29
			c-4.446,1.822-6.14,1.233-8.292-3.057c-2.285-4.556-3.373-9.378-2.635-14.474C693.105,401.48,694.39,400.488,700.061,401.126z"/>
		<path style="fill:#BFB99B;" d="M700.061,401.126c-4.196-2.739-6.781-2.054-8.056,2.519c-2.074,7.438-0.917,14.556,3.275,21.011
			c2.464,3.795,5.151,3.77,7.882,0.364C706.484,416.489,704.806,408.608,700.061,401.126z"/>
	</g>
</g>
</svg>
